<?xml version="1.0" encoding="utf-8"?>
<!-- Generator: Adobe Illustrator 26.0.1, SVG Export Plug-In . SVG Version: 6.00 Build 0)  -->
<svg version="1.1" id="Layer_1" xmlns="http://www.w3.org/2000/svg" xmlns:xlink="http://www.w3.org/1999/xlink" x="0px" y="0px"
	 viewBox="0 0 235 54" style="enable-background:new 0 0 235 54;" xml:space="preserve">
<style type="text/css">
	.st0{fill:#263238;}
	.st1{fill:#1B5459;}
	.st2{fill:#FFFFFF;}
	.st3{fill:#EDEDED;}
	.st4{fill:#4D6068;}
</style>
<g>
	<path class="st0" d="M83.1,41.6h-5.6V29.4h-8.3v12.2h-5.6V13.1h5.6v11.5h8.3V13.1h5.6V41.6z"/>
	<path class="st0" d="M98.4,41.6c-0.2-0.3-0.3-0.9-0.5-1.6c-1,1.4-2.3,2-3.9,2c-1.7,0-3.2-0.6-4.3-1.8C88.6,39,88,37.5,88,35.7
		c0-2.2,0.7-3.9,2.1-5.1c1.4-1.2,3.4-1.8,6-1.9h1.6V27c0-1-0.2-1.6-0.5-2c-0.3-0.4-0.8-0.6-1.4-0.6c-1.4,0-2,0.8-2,2.4h-5.4
		c0-2,0.7-3.6,2.1-4.8S93.8,20,96,20c2.3,0,4,0.6,5.3,1.8c1.2,1.2,1.9,2.9,1.9,5.2V37c0,1.8,0.3,3.2,0.8,4.3v0.3H98.4z M95.3,37.6
		c0.6,0,1.1-0.1,1.5-0.4c0.4-0.2,0.7-0.5,0.9-0.9V32h-1.3c-0.9,0-1.6,0.3-2.2,0.9c-0.5,0.6-0.8,1.4-0.8,2.4
		C93.5,36.8,94.1,37.6,95.3,37.6z"/>
	<path class="st0" d="M117.5,35.9c0-0.5-0.2-0.9-0.7-1.3c-0.4-0.4-1.4-0.9-2.9-1.6c-2.2-0.9-3.8-1.9-4.6-2.9c-0.8-1-1.3-2.2-1.3-3.7
		c0-1.8,0.7-3.4,2-4.6c1.3-1.2,3-1.8,5.2-1.8c2.3,0,4.1,0.6,5.4,1.8c1.4,1.2,2,2.8,2,4.8h-5.4c0-1.7-0.7-2.6-2.1-2.6
		c-0.6,0-1,0.2-1.4,0.5c-0.4,0.4-0.6,0.9-0.6,1.5c0,0.5,0.2,0.9,0.6,1.2c0.4,0.4,1.4,0.9,2.9,1.5c2.2,0.8,3.8,1.8,4.7,2.8
		s1.4,2.3,1.4,4c0,1.9-0.7,3.4-2.1,4.6c-1.4,1.1-3.2,1.7-5.5,1.7c-1.5,0-2.9-0.3-4-0.9c-1.2-0.6-2.1-1.4-2.7-2.5s-1-2.2-1-3.5h5.1
		c0,1,0.2,1.7,0.7,2.2s1.1,0.7,2,0.7C116.8,37.9,117.5,37.2,117.5,35.9z"/>
	<path class="st0" d="M137.2,41.6c-0.2-0.3-0.3-0.9-0.5-1.6c-1,1.4-2.3,2-3.9,2c-1.7,0-3.2-0.6-4.3-1.8s-1.7-2.7-1.7-4.6
		c0-2.2,0.7-3.9,2.1-5.1s3.4-1.8,6-1.9h1.6V27c0-1-0.2-1.6-0.5-2s-0.8-0.6-1.4-0.6c-1.3,0-2,0.8-2,2.4h-5.4c0-2,0.7-3.6,2.1-4.8
		s3.2-1.9,5.4-1.9c2.3,0,4,0.6,5.3,1.8c1.2,1.2,1.9,2.9,1.9,5.2V37c0,1.8,0.3,3.2,0.8,4.3v0.3H137.2z M134,37.6
		c0.6,0,1.1-0.1,1.5-0.4c0.4-0.2,0.7-0.5,0.9-0.9V32h-1.3c-0.9,0-1.6,0.3-2.2,0.9s-0.8,1.4-0.8,2.4C132.2,36.8,132.8,37.6,134,37.6z
		"/>
	<path class="st0" d="M152,20.4l0.2,2.1c1.2-1.7,2.8-2.5,4.8-2.5c3.6,0,5.4,2.5,5.5,7.6v13.9H157V28.1c0-1.2-0.2-2.1-0.5-2.6
		c-0.4-0.5-1-0.8-1.8-0.8c-1,0-1.7,0.5-2.3,1.5v15.4H147V20.4H152z"/>
	<path class="st0" d="M187.4,41.6h-5.6V29.4h-8.3v12.2h-5.6V13.1h5.6v11.5h8.3V13.1h5.6V41.6z"/>
	<path class="st0" d="M192.9,15c0-0.9,0.3-1.6,0.8-2.1s1.2-0.8,2.1-0.8c0.9,0,1.6,0.3,2.1,0.8c0.5,0.5,0.8,1.2,0.8,2.1
		c0,0.8-0.3,1.5-0.8,2.1c-0.5,0.6-1.2,0.8-2.1,0.8c-0.9,0-1.6-0.3-2.1-0.8C193.2,16.5,192.9,15.8,192.9,15z M198.6,41.6h-5.4V20.4
		h5.4V41.6z"/>
	<path class="st0" d="M214.3,25.8l-1.8-0.2c-1.5,0-2.5,0.7-3,2v14h-5.4V20.4h5.1l0.2,2.3c0.9-1.8,2-2.7,3.5-2.7
		c0.6,0,1.1,0.1,1.5,0.3L214.3,25.8z"/>
	<path class="st0" d="M227.6,41.6c-0.2-0.3-0.3-0.9-0.5-1.6c-1,1.4-2.3,2-3.9,2c-1.7,0-3.2-0.6-4.3-1.8s-1.7-2.7-1.7-4.6
		c0-2.2,0.7-3.9,2.1-5.1s3.4-1.8,6-1.9h1.6V27c0-1-0.2-1.6-0.5-2s-0.8-0.6-1.4-0.6c-1.3,0-2,0.8-2,2.4h-5.4c0-2,0.7-3.6,2.1-4.8
		s3.2-1.9,5.4-1.9c2.3,0,4,0.6,5.3,1.8c1.2,1.2,1.9,2.9,1.9,5.2V37c0,1.8,0.3,3.2,0.8,4.3v0.3H227.6z M224.4,37.6
		c0.6,0,1.1-0.1,1.5-0.4c0.4-0.2,0.7-0.5,0.9-0.9V32h-1.3c-0.9,0-1.6,0.3-2.2,0.9s-0.8,1.4-0.8,2.4
		C222.6,36.8,223.2,37.6,224.4,37.6z"/>
</g>
<g>
	<polygon class="st1" points="29.1,1.4 37.4,6.9 47.2,8.9 49.2,18.7 54.7,27 49.2,35.3 47.2,45.1 37.4,47.1 29.1,52.6 20.8,47.1 
		11,45.1 9,35.3 3.6,27 9,18.7 11,8.9 20.8,6.9 	"/>
	<g>
		<g>
			<path class="st2" d="M22.5,38.9c-0.1-0.2-0.2-0.4-0.2-0.6V15.8c0-0.3,0.1-0.5,0.2-0.6s0.2-0.3,0.4-0.3h3c0.2,0,0.3,0.1,0.4,0.3
				c0.1,0.2,0.2,0.4,0.2,0.6V24h5.2v-8.2c0-0.3,0.1-0.5,0.2-0.6c0.1-0.2,0.2-0.3,0.4-0.3h3c0.2,0,0.3,0.1,0.4,0.3
				c0.1,0.2,0.2,0.4,0.2,0.6v22.5c0,0.3-0.1,0.5-0.2,0.6c-0.1,0.2-0.2,0.2-0.4,0.2h-3c-0.2,0-0.3-0.1-0.4-0.2
				c-0.1-0.2-0.2-0.4-0.2-0.6v-8.5h-5.2v8.5c0,0.3-0.1,0.5-0.2,0.6c-0.1,0.2-0.2,0.2-0.4,0.2h-3C22.8,39.1,22.7,39,22.5,38.9z"/>
		</g>
		<g>
			<g>
				<path class="st3" d="M38.2,37.4c-0.4,0-0.7-0.1-0.9-0.2c-0.3-0.2-0.4-0.5-0.4-0.7v-8H21.3v8c0,0.2-0.1,0.5-0.4,0.7
					c-0.3,0.1-0.6,0.2-0.9,0.2h-2.2c-0.4,0-0.7-0.1-0.9-0.2c-0.3-0.2-0.4-0.5-0.4-0.7V17.7c0-0.3,0.1-0.5,0.4-0.7
					c0.2-0.2,0.5-0.2,0.9-0.2H20c0.4,0,0.7,0.1,0.9,0.2c0.3,0.2,0.4,0.4,0.4,0.7v7.7h15.5v-7.7c0-0.3,0.1-0.5,0.4-0.7
					c0.2-0.1,0.5-0.2,0.9-0.2h2.2c0.4,0,0.7,0.1,0.9,0.2c0.3,0.2,0.4,0.4,0.4,0.7v18.8c0,0.2-0.1,0.5-0.4,0.7
					c-0.3,0.1-0.6,0.2-0.9,0.2H38.2z"/>
				<path class="st4" d="M40.4,17c0.3,0,0.6,0.1,0.8,0.2c0.2,0.1,0.3,0.3,0.3,0.5v18.8c0,0.2-0.1,0.3-0.3,0.5
					c-0.2,0.1-0.5,0.2-0.8,0.2h-2.2c-0.3,0-0.6-0.1-0.8-0.2c-0.2-0.1-0.3-0.3-0.3-0.5v-8.3h-16v8.3c0,0.2-0.1,0.3-0.3,0.5
					c-0.2,0.1-0.5,0.2-0.8,0.2h-2.2c-0.3,0-0.6-0.1-0.7-0.2c-0.2-0.1-0.3-0.3-0.3-0.5V17.7c0-0.2,0.1-0.4,0.3-0.5
					c0.2-0.1,0.4-0.2,0.7-0.2H20c0.3,0,0.6,0.1,0.8,0.2c0.2,0.1,0.3,0.3,0.3,0.5v8h16v-8c0-0.2,0.1-0.4,0.3-0.5
					c0.2-0.1,0.5-0.2,0.8-0.2H40.4 M40.4,16.5h-2.2c-0.4,0-0.7,0.1-1,0.3c-0.3,0.2-0.5,0.5-0.5,0.9v7.5h-15v-7.5
					c0-0.4-0.2-0.7-0.5-0.9c-0.3-0.2-0.6-0.3-1.1-0.3h-2.2c-0.4,0-0.8,0.1-1,0.3c-0.3,0.2-0.5,0.5-0.5,0.9v18.8
					c0,0.4,0.2,0.7,0.5,0.9c0.3,0.2,0.6,0.3,1,0.3H20c0.4,0,0.7-0.1,1-0.3c0.5-0.3,0.6-0.7,0.6-0.9v-7.8h15v7.8
					c0,0.4,0.2,0.7,0.5,0.9c0.3,0.2,0.6,0.3,1,0.3h2.2c0.4,0,0.7-0.1,1-0.3c0.5-0.3,0.6-0.7,0.6-0.9V17.7c0-0.4-0.2-0.7-0.5-0.9
					C41.2,16.6,40.8,16.5,40.4,16.5L40.4,16.5z"/>
			</g>
		</g>
	</g>
</g>
</svg>
